<svg xmlns="http://www.w3.org/2000/svg" width="24" height="22" viewBox="0 0 24 22">
  <metadata><?xpacket begin="﻿" id="W5M0MpCehiHzreSzNTczkc9d"?>
<x:xmpmeta xmlns:x="adobe:ns:meta/" x:xmptk="Adobe XMP Core 5.6-c138 79.159824, 2016/09/14-01:09:01        ">
   <rdf:RDF xmlns:rdf="http://www.w3.org/1999/02/22-rdf-syntax-ns#">
      <rdf:Description rdf:about=""/>
   </rdf:RDF>
</x:xmpmeta>
                                                                                                    
                                                                                                    
                                                                                                    
                                                                                                    
                                                                                                    
                                                                                                    
                                                                                                    
                                                                                                    
                                                                                                    
                                                                                                    
                                                                                                    
                                                                                                    
                                                                                                    
                                                                                                    
                                                                                                    
                                                                                                    
                                                                                                    
                                                                                                    
                                                                                                    
                                                                                                    
                           
<?xpacket end="w"?></metadata>
<defs>
    <style>
      .cls-1 {
        fill: #f2bb13;
        fill-rule: evenodd;
      }
    </style>
  </defs>
  <path id="Code_24" class="cls-1" d="M4081,671h-20a2,2,0,0,1-2-2V651a2,2,0,0,1,2-2h20a2,2,0,0,1,2,2v18A2,2,0,0,1,4081,671Zm-20-2h19.99l0.01-14h-20v14Zm0-18v2h20v-2h-20Zm12.7,14.708a0.983,0.983,0,0,1-.7.293,1,1,0,0,1-.71-1.707l2.29-2.292-2.29-2.294a1,1,0,1,1,1.41-1.414l3.01,3a1.019,1.019,0,0,1,0,1.414Zm-4,0a0.983,0.983,0,0,1-.7.293,1.006,1.006,0,0,1-.71-0.293l-3-3a1,1,0,0,1,0-1.414l3-3a1,1,0,0,1,1.41,0,0.984,0.984,0,0,1,0,1.415L4067.41,662l2.29,2.293A0.983,0.983,0,0,1,4069.7,665.706Z" transform="translate(-4059 -649)"/>
</svg>
