<svg xmlns="http://www.w3.org/2000/svg" width="24" height="24" viewBox="0 0 24 24">
  <metadata><?xpacket begin="﻿" id="W5M0MpCehiHzreSzNTczkc9d"?>
<x:xmpmeta xmlns:x="adobe:ns:meta/" x:xmptk="Adobe XMP Core 5.6-c138 79.159824, 2016/09/14-01:09:01        ">
   <rdf:RDF xmlns:rdf="http://www.w3.org/1999/02/22-rdf-syntax-ns#">
      <rdf:Description rdf:about=""/>
   </rdf:RDF>
</x:xmpmeta>
                                                                                                    
                                                                                                    
                                                                                                    
                                                                                                    
                                                                                                    
                                                                                                    
                                                                                                    
                                                                                                    
                                                                                                    
                                                                                                    
                                                                                                    
                                                                                                    
                                                                                                    
                                                                                                    
                                                                                                    
                                                                                                    
                                                                                                    
                                                                                                    
                                                                                                    
                                                                                                    
                           
<?xpacket end="w"?></metadata>
<defs>
    <style>
      .cls-1 {
        fill: #fff;
        fill-rule: evenodd;
      }
    </style>
  </defs>
  <path id="Next_24" class="cls-1" d="M4933,1512a12,12,0,1,1,12-12A12.01,12.01,0,0,1,4933,1512Zm0-22a10,10,0,1,0,10,10A10,10,0,0,0,4933,1490Zm-1,15a1,1,0,0,1-.71-1.71l3.29-3.29-3.29-3.29a1.008,1.008,0,0,1,0-1.42,1,1,0,0,1,1.41,0l4,4a1.008,1.008,0,0,1,0,1.42l-4,4A1,1,0,0,1,4932,1505Z" transform="translate(-4921 -1488)"/>
</svg>
