<svg xmlns="http://www.w3.org/2000/svg" width="24" height="18" viewBox="0 0 24 18">
  <metadata><?xpacket begin="﻿" id="W5M0MpCehiHzreSzNTczkc9d"?>
<x:xmpmeta xmlns:x="adobe:ns:meta/" x:xmptk="Adobe XMP Core 5.6-c138 79.159824, 2016/09/14-01:09:01        ">
   <rdf:RDF xmlns:rdf="http://www.w3.org/1999/02/22-rdf-syntax-ns#">
      <rdf:Description rdf:about=""/>
   </rdf:RDF>
</x:xmpmeta>
                                                                                                    
                                                                                                    
                                                                                                    
                                                                                                    
                                                                                                    
                                                                                                    
                                                                                                    
                                                                                                    
                                                                                                    
                                                                                                    
                                                                                                    
                                                                                                    
                                                                                                    
                                                                                                    
                                                                                                    
                                                                                                    
                                                                                                    
                                                                                                    
                                                                                                    
                                                                                                    
                           
<?xpacket end="w"?></metadata>
<defs>
    <style>
      .cls-1 {
        fill: #f2bb13;
        fill-rule: evenodd;
      }
    </style>
  </defs>
  <path id="Output_24" class="cls-1" d="M3150,1270c-7.8,0-12-6.39-12-9s4.2-9,12-9,12,6.39,12,9S3157.79,1270,3150,1270Zm0-16c-6.79,0-10,5.61-10,7s3.21,7,10,7,10-5.62,10-7S3156.78,1254,3150,1254Zm0,12a5,5,0,1,1,5-5A5,5,0,0,1,3150,1266Zm0-8a3,3,0,1,0,3,3A3,3,0,0,0,3150,1258Z" transform="translate(-3138 -1252)"/>
</svg>
