<svg xmlns="http://www.w3.org/2000/svg" width="24" height="24" viewBox="0 0 24 24">
  <metadata><?xpacket begin="﻿" id="W5M0MpCehiHzreSzNTczkc9d"?>
<x:xmpmeta xmlns:x="adobe:ns:meta/" x:xmptk="Adobe XMP Core 5.6-c138 79.159824, 2016/09/14-01:09:01        ">
   <rdf:RDF xmlns:rdf="http://www.w3.org/1999/02/22-rdf-syntax-ns#">
      <rdf:Description rdf:about=""/>
   </rdf:RDF>
</x:xmpmeta>
                                                                                                    
                                                                                                    
                                                                                                    
                                                                                                    
                                                                                                    
                                                                                                    
                                                                                                    
                                                                                                    
                                                                                                    
                                                                                                    
                                                                                                    
                                                                                                    
                                                                                                    
                                                                                                    
                                                                                                    
                                                                                                    
                                                                                                    
                                                                                                    
                                                                                                    
                                                                                                    
                           
<?xpacket end="w"?></metadata>
<defs>
    <style>
      .cls-1 {
        fill: #fff;
        fill-rule: evenodd;
      }
    </style>
  </defs>
  <path id="Play_24" class="cls-1" d="M4068,1512a12,12,0,1,1,12-12A12.01,12.01,0,0,1,4068,1512Zm0-22a10,10,0,1,0,10,10A10.01,10.01,0,0,0,4068,1490Zm5.44,10.89-8,4a0.988,0.988,0,0,1-.44.11,1.014,1.014,0,0,1-.53-0.15,1,1,0,0,1-.47-0.85v-8a1,1,0,0,1,.47-0.85,1.015,1.015,0,0,1,.97-0.05l8,4a1.012,1.012,0,0,1,.56.9A1,1,0,0,1,4073.44,1500.89Zm-7.44-3.27v4.76l4.76-2.38Z" transform="translate(-4056 -1488)"/>
</svg>
