<svg xmlns="http://www.w3.org/2000/svg" width="24" height="24" viewBox="0 0 24 24">
  <metadata><?xpacket begin="﻿" id="W5M0MpCehiHzreSzNTczkc9d"?>
<x:xmpmeta xmlns:x="adobe:ns:meta/" x:xmptk="Adobe XMP Core 5.6-c138 79.159824, 2016/09/14-01:09:01        ">
   <rdf:RDF xmlns:rdf="http://www.w3.org/1999/02/22-rdf-syntax-ns#">
      <rdf:Description rdf:about=""/>
   </rdf:RDF>
</x:xmpmeta>
                                                                                                    
                                                                                                    
                                                                                                    
                                                                                                    
                                                                                                    
                                                                                                    
                                                                                                    
                                                                                                    
                                                                                                    
                                                                                                    
                                                                                                    
                                                                                                    
                                                                                                    
                                                                                                    
                                                                                                    
                                                                                                    
                                                                                                    
                                                                                                    
                                                                                                    
                                                                                                    
                           
<?xpacket end="w"?></metadata>
<defs>
    <style>
      .cls-1 {
        fill: #f2bb13;
        fill-rule: evenodd;
      }
    </style>
  </defs>
  <path id="Question_24" class="cls-1" d="M3150,672a12,12,0,1,1,12-12A12.012,12.012,0,0,1,3150,672Zm0-22a10,10,0,1,0,10,10A10.008,10.008,0,0,0,3150,650Zm2.39,10.344a3.3,3.3,0,0,0-1.4,2.527,1.007,1.007,0,0,1-.92,1.061c-0.03,0-.05,0-0.08,0a0.993,0.993,0,0,1-.99-0.9,5.2,5.2,0,0,1,2.13-4.243,1.974,1.974,0,0,0,.87-1.739,2.06,2.06,0,0,0-2-2.107,1.956,1.956,0,0,0-2,2,1,1,0,0,1-2,0,3.953,3.953,0,0,1,4-4,4.062,4.062,0,0,1,4,4.106A3.943,3.943,0,0,1,3152.39,660.343Zm-2.23,4.642a0.967,0.967,0,0,1,.82,1.127l-0.01.058a0.991,0.991,0,0,1-.98.83,0.978,0.978,0,0,1-.17-0.016,1,1,0,0,1-.82-1.155A1.024,1.024,0,0,1,3150.16,664.985Z" transform="translate(-3138 -648)"/>
</svg>
